<svg width="20" height="20" viewBox="0 0 20 20" fill="none" xmlns="http://www.w3.org/2000/svg">
<path fill-rule="evenodd" clip-rule="evenodd" d="M10 17C13.866 17 17 13.866 17 10C17 6.13401 13.866 3 10 3C6.13401 3 3 6.13401 3 10C3 13.866 6.13401 17 10 17ZM13.5632 8.49533L14.0585 7.93216L12.9322 6.94151L12.4368 7.50468L9.48675 10.8588L8.5674 9.79525L8.07693 9.22785L6.94213 10.2088L7.4326 10.7762L8.91444 12.4905C9.05617 12.6544 9.2619 12.7491 9.47862 12.75C9.69534 12.7509 9.90187 12.6581 10.045 12.4953L13.5632 8.49533Z" fill="#4BB34B"/>
</svg>
