<svg width="24" height="24" viewBox="0 0 24 24" fill="none" xmlns="http://www.w3.org/2000/svg">
<path d="M15.5999 7.80002H8.3999H10.3635C11.0579 7.80002 11.7239 8.089 12.2149 8.60339C12.7059 9.11777 12.9817 9.81543 12.9817 10.5429C12.9817 11.2703 12.7059 11.968 12.2149 12.4824C11.7239 12.9968 11.0579 13.2857 10.3635 13.2857H8.3999L12.3272 17.4M8.3999 10.5429H15.5999M21.5999 12C21.5999 17.302 17.3018 21.6 11.9999 21.6C6.69797 21.6 2.3999 17.302 2.3999 12C2.3999 6.69809 6.69797 2.40002 11.9999 2.40002C17.3018 2.40002 21.5999 6.69809 21.5999 12Z" stroke="#A1A1AA" stroke-width="1.8" stroke-linecap="round" stroke-linejoin="round"/>
</svg>
