<svg width="24" height="24" viewBox="0 0 24 24" fill="none" xmlns="http://www.w3.org/2000/svg">
<path d="M19.5795 19.8125V22H17.8939V19.8125C17.8939 18.6059 16.9492 17.625 15.787 17.625H8.20205C7.04072 17.625 6.09513 18.6059 6.09513 19.8125V22H4.40959V19.8125C4.40959 17.6416 6.11114 15.875 8.20205 15.875H15.787C17.8779 15.875 19.5795 17.6416 19.5795 19.8125ZM12.689 6.33307C13.7466 6.58594 14.6088 7.47407 14.8591 8.57045C15.0285 9.31158 14.9358 10.0221 14.6585 10.625H15.7592C16.1814 10.625 16.5505 10.303 16.5994 9.8672C16.6567 9.35358 16.6357 8.81545 16.5227 8.26507C16.1485 6.44594 14.7268 4.97856 12.9721 4.60406C9.99126 3.96793 7.36013 6.32782 7.36013 9.31245C7.36013 10.5978 7.84809 11.7668 8.64114 12.6305C8.67485 11.8885 8.93274 11.2068 9.34569 10.6565C9.15354 10.2505 9.04567 9.7937 9.04567 9.31158C9.04567 7.38744 10.7632 5.87194 12.6898 6.33219L12.689 6.33307ZM7.67195 4.52443C8.96055 3.27055 10.6478 2.65105 12.4167 2.7648C15.7238 2.98705 18.3153 5.97519 18.3153 9.56708C18.3153 11.1158 17.1026 12.375 15.6109 12.375H13.5907C13.3859 11.6478 12.7395 11.1158 11.9726 11.1158C11.0413 11.1158 10.2871 11.899 10.2871 12.8658C10.2871 13.8327 11.0413 14.6158 11.9726 14.6158C12.4269 14.6158 12.8398 14.4286 13.1424 14.125H15.61C18.0304 14.125 20 12.0801 20 9.56708C20.0008 5.05469 16.7174 1.29917 12.5255 1.0183C10.2803 0.86692 8.15065 1.6588 6.51988 3.2478C5.01385 4.71343 4.10872 6.74432 4 8.87583H5.68807C5.79173 7.21069 6.48702 5.67856 7.67279 4.52443H7.67195Z" fill="#A1A1AA"/>
</svg>
